PathFileType	4	(X/Y/Z)	C:/Users/beibeiliu/ov580/test_trc/User1\sequence.38_training_dense_right.trc
DataRate	CameraRate	NumFrames	NumMarkers	Units	OrigDataRate	OrigDataStartFrame	OrigNumFrames
120	120	18	19	mm	120	251	500
Frame#	Time	ThumbCMC			ThumbMCP			ThumbIP			ThumbTip			IndexMCP			IndexPIP			IndexTip			MiddleMCP			MiddlePIP			MiddleTip			RingMCP			RingPIP			RingTip			PinkyMCP			PinkyPIP			PinkyTip			BackHand1			BackHand2			BackHand3	
		X0	Y0	Z0	X1	Y1	Z1	X2	Y2	Z2	X3	Y3	Z3	X4	Y4	Z4	X5	Y5	Z5	X6	Y6	Z6	X7	Y7	Z7	X8	Y8	Z8	X9	Y9	Z9	X10	Y10	Z10	X11	Y11	Z11	X12	Y12	Z12	X13	Y13	Z13	X14	Y14	Z14	X15	Y15	Z15	X16	Y16	Z16	X17	Y17	Z17	X18	Y18	Z18	
250	2.08333	192.651	-27.419	55.6916	178.977	-43.6235	21.0351	186.81	-57.8801	-6.31651	197.746	-78.5022	-20.1423	240.068	-18.4166	-11.3645	239.456	-29.951	-36.1366	222.612	-46.5298	-55.0524	268.155	-39.0332	-2.08056	273.082	-46.4283	-35.2979	259.502	-62.1709	-63.0097	270.62	-66.3942	6.02518	268.034	-77.0112	-26.0283	243.677	-91.394	-44.4735	264.615	-91.0942	20.2565	264.587	-101.594	-3.66221	255.097	-106.432	-28.1793	254.819	-55.0405	64.4974	243.039	-56.0978	93.0812	234.581	-25.6572	67.5231	
251	2.09167	192.013	-25.9726	57.0301	181.725	-43.9023	23.6737	187.288	-58.197	-2.0049	198.429	-78.8053	-22.1089	240.094	-18.7529	-6.19944	235.624	-28.0927	-38.7373	220.098	-51.6755	-57.2569	267.796	-37.4502	-1.68187	272.678	-46.2483	-35.7563	261.748	-59.2451	-63.3055	270.787	-64.2802	4.24405	270.696	-77.569	-25.9623	247.644	-89.1115	-45.5502	265.111	-92.8316	19.842	261.009	-100.201	-4.52109	251.66	-104.041	-30.3321	257.489	-55.2566	62.208	245.47	-60.1681	93.3024	235.617	-27.4175	68.1167	
252	2.1	193.045	-27.6101	56.4503	183.336	-43.4823	18.8009	188.996	-59.4881	-4.61701	197.004	-79.044	-18.1116	245.4	-24.1579	-7.17341	238.501	-33.2593	-38.6869	219.876	-51.0995	-58.0256	270.53	-40.5488	-2.1225	276.734	-48.5108	-32.2995	262.582	-62.6741	-65.0019	271.742	-65.8207	4.73516	272.666	-77.5876	-26.0689	250.836	-89.8907	-46.7801	263.058	-89.437	17.6464	260.042	-102.365	-4.20709	246.9	-107.177	-28.356	258.883	-59.1841	64.1586	246.212	-61.1416	95.1129	237.943	-29.619	69.8046	
253	2.10833	195.204	-26.8344	54.2581	183.298	-44.3974	22.9113	190.378	-60.0998	-7.8626	197.611	-80.2632	-23.4461	243.84	-21.8055	-8.91972	239.047	-32.8735	-38.58	223.173	-49.8507	-55.2182	270.588	-39.3956	-2.08998	278.182	-49.6385	-35.5733	265.78	-62.1758	-64.9154	274.401	-67.2345	4.318	272.579	-75.7019	-25.0994	251.972	-88.6589	-46.3679	262.919	-93.0645	18.776	258.512	-99.9967	-3.79327	242.386	-105.579	-27.9879	257.883	-60.0113	61.609	245.832	-56.4926	94.5346	238.663	-29.1744	70.4527	
254	2.11667	195.606	-28.8786	57.2676	185.661	-45.9165	21.7254	192.269	-60.0021	-3.76329	203.169	-80.7826	-18.5582	247.043	-25.5432	-11.7195	241.784	-36.4188	-36.4262	220.185	-53.0823	-57.8903	271.526	-40.0475	-1.22767	278.712	-48.6058	-34.8104	266.629	-65.1154	-65.0113	274.444	-66.4394	4.0546	272.874	-75.7688	-27.8192	250.31	-89.6431	-46.4368	263.936	-94.3664	17.826	252.954	-97.9313	-8.07536	235.513	-102.057	-25.2721	258.96	-61.0309	64.8097	246.62	-55.7386	92.011	236.921	-27.4355	70.3723	
255	2.125	194.113	-27.4691	57.9739	186.483	-44.9908	18.5293	191.096	-60.7624	-7.10488	202.557	-82.9689	-22.6429	246.35	-24.5019	-7.61594	241.392	-35.7042	-38.5543	221.368	-55.122	-57.5463	273.75	-42.0029	-2.40532	279.823	-50.412	-33.2319	269.59	-64.2864	-60.5185	272.902	-67.1372	6.60903	271.584	-79.0846	-29.4008	250.834	-89.2803	-44.5549	263.083	-94.157	17.6735	251.944	-100.134	-6.82323	231.693	-100.444	-24.0584	258.682	-60.3194	61.1117	245.29	-57.7742	95.7134	236.65	-26.9438	67.9764	
256	2.13333	198.606	-27.8325	54.7039	187.291	-45.951	19.9409	194.201	-61.4352	-4.80716	202.493	-81.1964	-17.1089	247.82	-27.888	-9.86509	242.799	-36.2806	-37.3788	223.591	-55.704	-55.0944	274.462	-44.9332	1.09856	281.331	-52.4865	-32.4486	269.851	-64.6307	-63.3401	273.329	-65.3854	1.22978	271.951	-81.07	-26.0902	250.257	-90.487	-44.7478	261.82	-93.3903	14.042	247.721	-97.6508	-7.91031	228.245	-100.497	-22.4874	257.89	-57.9285	62.075	247.504	-56.4244	93.1485	239.975	-29.5214	71.7452	
257	2.14167	195.641	-25.7421	57.1874	188.043	-45.3308	22.2254	191.61	-60.8758	-3.43718	204.438	-82.054	-17.2743	246.705	-25.5178	-11.2569	241.797	-42.2146	-39.1379	223.515	-57.2201	-54.2958	274.718	-41.5495	-1.62897	281.015	-50.7092	-31.5062	271.167	-66.7789	-62.2975	273.149	-66.07	2.90653	270.244	-80.1388	-27.9088	248.731	-89.9179	-44.6828	260.287	-92.454	15.9631	248.437	-98.5782	-5.95259	219.455	-100.497	-19.6973	259.412	-60.5829	59.924	248.74	-58.2726	93.3967	239.163	-29.4013	71.0457	
258	2.15	196.742	-27.9882	58.5874	186.253	-43.8475	18.1024	193.617	-60.8017	-3.89301	205.108	-84.004	-18.5702	249.453	-27.6459	-7.92061	242.785	-41.7956	-39.0082	225.87	-58.0506	-51.9708	275.79	-46.4387	0.489758	281.97	-50.8504	-34.8126	271.859	-67.6821	-62.5082	275.369	-71.3029	2.39736	270.276	-80.1981	-28.7394	245.265	-93.0577	-44.6299	259.424	-90.2712	19.2207	245.85	-101.105	-7.12846	215.594	-97.1726	-14.5565	259.635	-59.1591	62.6684	249.143	-62.1528	93.0663	240.613	-27.233	69.8876	
259	2.15833	197.186	-26.7795	58.218	189.093	-45.2885	21.4319	195.286	-60.563	-2.22749	203.256	-82.247	-16.9472	248.096	-25.5616	-10.4806	242.227	-38.9433	-37.7243	222.303	-56.316	-55.0765	277.156	-47.0161	-1.61518	281.307	-49.8577	-32.7051	275.192	-68.6247	-58.6004	272.489	-66.7834	5.19469	270.54	-79.618	-24.3042	246.858	-89.6287	-43.124	261.561	-92.7471	16.1587	242.812	-98.8801	-7.53475	215.525	-97.1382	-12.5884	261.463	-61.4991	61.2562	246.991	-62.9849	95.9749	237.337	-26.6938	71.5011	
260	2.16667	195.427	-27.036	59.0568	186.416	-44.7589	24.4009	192.667	-59.6212	-3.60306	202.525	-82.7548	-20.7716	249.934	-29.9548	-9.60591	245.313	-42.1001	-35.2621	222.283	-57.7586	-53.8048	274.068	-45.9974	2.68639	283.314	-52.3005	-29.8671	275.109	-67.3805	-59.6638	271.831	-68.2745	3.76497	268.651	-79.3352	-27.7343	244.939	-92.2416	-43.897	260.974	-92.4417	15.6308	245.215	-98.507	-6.28609	215.007	-98.2046	-9.99672	257.496	-62.8407	64.0489	246.054	-60.6883	95.2571	241.571	-29.1205	68.8952	
261	2.175	197.684	-28.4383	60.8303	188.862	-45.1247	21.2924	197.653	-61.2409	-4.15037	207.656	-82.2042	-16.3751	249.337	-28.7196	-7.71475	245.022	-37.2699	-35.7013	224.305	-57.8003	-52.1198	275.555	-44.6179	-0.253734	283.046	-55.4372	-29.9222	274.389	-68.1496	-62.2264	272.723	-70.1006	2.78954	269.454	-82.0228	-25.0267	242.273	-92.2982	-43.9836	259.216	-90.1972	20.3435	244.919	-98.543	-6.89871	211.549	-94.0889	-8.49857	259.172	-62.0452	62.1751	245.417	-58.5461	93.8636	239.026	-29.3295	70.2478	
262	2.18333	198.677	-26.604	57.2663	185.438	-44.1746	23.9348	191.978	-58.3444	-3.69909	203.552	-81.2934	-17.8409	249.598	-28.6096	-10.3509	244.988	-42.2851	-35.0233	224.306	-58.8523	-52.3228	275.6	-48.5148	0.51576	283.389	-55.7198	-32.4518	274.988	-68.9188	-59.6529	271.392	-70.1112	5.3057	266.382	-80.3681	-27.8707	242.606	-94.6643	-43.8017	258.467	-91.1689	17.5384	244.892	-96.569	-6.76016	215.364	-96.4356	-10.8821	257.832	-64.8693	65.0371	248.586	-60.5011	95.0671	242.542	-29.3642	68.5617	
263	2.19167	200.626	-26.4193	56.2283	188.345	-42.8471	21.9457	196.98	-59.602	-5.21081	203.553	-80.8372	-19.3117	250.523	-27.8106	-9.91362	243.958	-38.1697	-37.9648	225.385	-54.2492	-52.0036	275.083	-48.7714	2.26195	282.884	-54.9096	-28.9104	274.634	-65.77	-61.8439	271.933	-70.3441	4.13729	268.424	-83.807	-26.5354	245.198	-94.2849	-42.7237	258.567	-92.6341	18.8116	242.906	-97.3432	-6.3665	213.777	-93.9547	-12.9375	257.734	-62.9555	63.7553	247.786	-60.1714	95.4528	239.744	-30.0198	70.6225	
264	2.2	198.003	-23.7285	59.2231	188.22	-41.6523	23.7314	196.495	-58.6629	-5.65797	202.784	-79.7103	-16.0193	251.36	-30.0069	-10.6981	244.034	-38.1091	-36.4053	224.419	-56.5513	-51.2667	276.544	-50.093	0.621953	284.23	-57.0833	-30.7645	274.489	-69.5484	-63.2776	272.201	-74.2777	5.76016	267.191	-80.9821	-28.0439	242.002	-94.7505	-45.4802	256.925	-91.5309	17.9591	242.687	-96.3993	-7.89904	210.784	-91.7652	-12.8967	258.016	-67.0852	64.5197	247.254	-60.9965	92.0733	241.312	-30.6386	70.262	
265	2.20833	204.312	-25.7957	56.865	190.842	-40.4125	20.1594	196.529	-57.485	-7.13	203.493	-81.2975	-20.8578	253.148	-32.6151	-9.14489	245.784	-41.9927	-36.8646	222.829	-57.1529	-53.9531	278.773	-50.9598	-2.09981	283.511	-57.7481	-30.7824	274.536	-72.7278	-60.8814	271.166	-74.2888	2.80335	267.319	-86.419	-29.771	246.506	-92.67	-44.9131	257.246	-96.7039	14.8981	245.157	-97.826	-7.08215	213.296	-96.9664	-16.7763	259.234	-68.2006	58.8914	247.032	-62.1145	95.5348	243.953	-30.2461	69.2245	
266	2.21667	204.729	-22.7687	54.4548	191.943	-39.9487	21.6572	197.942	-56.3791	-2.52679	201.735	-80.7413	-21.8515	254.824	-34.287	-6.40594	244.707	-43.8125	-39.3457	223.981	-59.027	-52.9193	279.133	-55.4463	-2.12441	284.768	-60.9431	-33.217	274.423	-70.7732	-62.5383	271.575	-74.7888	2.77783	269.081	-89.1324	-25.2409	245.594	-95.3126	-47.0572	255.111	-94.7803	18.7654	244.127	-103.754	-8.08712	216.986	-94.4636	-23.6602	259.726	-68.9754	61.5244	248.036	-65.2916	90.4403	244.514	-34.5487	69.6545	
267	2.225	207.057	-24.9216	58.6598	194.452	-38.3286	20.2669	197.393	-55.421	-4.26912	200.994	-78.6801	-18.7317	254.887	-31.3589	-9.5967	248.063	-47.0765	-36.4033	221.558	-61.3281	-54.7745	279.162	-55.3217	-2.5233	284.233	-65.8766	-32.9997	274.94	-76.1059	-61.7593	273.502	-79.4259	3.62413	269.381	-87.5604	-28.2264	246.683	-95.7448	-49.6906	254.267	-98.2918	18.2328	245.766	-106.208	-6.24161	220.345	-100.122	-26.4612	261.187	-70.8638	59.2745	250.188	-65.4652	91.9449	248.303	-33.8308	66.0066	
